<?xml version="1.0" encoding="utf-8"?>
<!-- Generator: Adobe Illustrator 16.0.0, SVG Export Plug-In . SVG Version: 6.00 Build 0)  -->
<!DOCTYPE svg PUBLIC "-//W3C//DTD SVG 1.1//EN" "http://www.w3.org/Graphics/SVG/1.1/DTD/svg11.dtd">
<svg version="1.1" id="Layer_1" xmlns="http://www.w3.org/2000/svg" xmlns:xlink="http://www.w3.org/1999/xlink" x="0px" y="0px"
	 width="24px" height="32.005px" viewBox="0 0 24 32.005" enable-background="new 0 0 24 32.005" xml:space="preserve">
<path fill-rule="evenodd" clip-rule="evenodd" fill="#FFFFFF" d="M136.262,97.297c-0.391,0.391-1.023,0.391-1.414,0l-2.535-2.535
	c-0.791,0.523-1.736,0.832-2.755,0.832c-2.761,0-5-2.238-5-5c0-2.761,2.239-5,5-5c2.762,0,5.001,2.239,5.001,5
	c0,1.019-0.309,1.964-0.832,2.754l2.535,2.535C136.653,96.274,136.653,96.907,136.262,97.297z M129.558,87.594
	c-1.656,0-2.999,1.343-2.999,3s1.343,3,2.999,3c1.657,0,3.001-1.343,3.001-3S131.215,87.594,129.558,87.594z"/>
<path fill="#ED2124" d="M20,11.002C20,4.935,16.412,0,12,0C7.591,0,4,4.935,4,11.002H0v21.003h24V11.002H20z M5,15.002
	c-0.553,0-1-0.447-1-1c0-0.554,0.447-1,1-1c0.554,0,1,0.446,1,1C6,14.555,5.554,15.002,5,15.002z M12,2c3.31,0,6,4.038,6,9.002H6
	C6,6.038,8.691,2,12,2z M19,15.002c-0.553,0-1-0.447-1-1c0-0.554,0.447-1,1-1c0.554,0,1,0.446,1,1
	C20,14.555,19.554,15.002,19,15.002z"/>
</svg>
