<?xml version="1.0" encoding="utf-8"?>
<!-- Generator: Adobe Illustrator 19.0.0, SVG Export Plug-In . SVG Version: 6.00 Build 0)  -->
<svg version="1.1" id="Layer_1" xmlns="http://www.w3.org/2000/svg" xmlns:xlink="http://www.w3.org/1999/xlink" x="0px" y="0px"
	 viewBox="0 0 32 32" style="enable-background:new 0 0 32 32;" xml:space="preserve">
<path d="M4,5V1c0-0.6,0.4-1,1-1c0.6,0,1,0.4,1,1v4c0,0.6-0.4,1-1,1C4.4,6,4,5.6,4,5z M21,6c0.6,0,1-0.4,1-1V1c0-0.6-0.4-1-1-1
	c-0.6,0-1,0.4-1,1v4C20,5.6,20.5,6,21,6z M32,24c0,4.4-3.6,8-8,8c-4.4,0-8-3.6-8-8c0-4.4,3.6-8,8-8C28.4,16,32,19.6,32,24z M30,24
	c0-3.3-2.7-6-6-6s-6,2.7-6,6c0,3.3,2.7,6,6,6S30,27.3,30,24z M8,12H4v4h4V12z M4,22h4v-4H4V22z M10,16h4v-4h-4V16z M10,22h4v-4h-4
	V22z M2,23.8V10h22v4h2V6.2C26,5,25,4,23.8,4H23v1c0,1.1-0.9,2-2,2c-1.1,0-2-0.9-2-2V4H7v1c0,1.1-0.9,2-2,2C3.9,7,3,6.1,3,5V4H2.2
	C1,4,0,5,0,6.2v17.6C0,25,1,26,2.2,26H14v-2H2.2C2.1,24,2,23.9,2,23.8z M20,16v-4h-4v4H20z M24,19h-1v6h6v-1C29,21.2,26.8,19,24,19z
	"/>
</svg>
