<?xml version="1.0" encoding="utf-8"?>
<!-- Generator: Adobe Illustrator 19.0.0, SVG Export Plug-In . SVG Version: 6.00 Build 0)  -->
<svg version="1.1" id="Layer_1" xmlns="http://www.w3.org/2000/svg" xmlns:xlink="http://www.w3.org/1999/xlink" x="0px" y="0px"
	 viewBox="-285 408.9 24 24" style="enable-background:new -285 408.9 24 24;" xml:space="preserve">
<style type="text/css">
	.st0{fill:#4B494E;}
</style>
<g>
	<g>
		<path class="st0" d="M-262.4,408.9L-262.4,408.9h-3c-0.7,0-1.3,0.5-1.5,1.2l-0.3,1.8h-16.2c-0.5,0-1,0.3-1.3,0.7
			c-0.3,0.4-0.3,1-0.1,1.5l4.5,9c0.3,0.5,0.8,0.8,1.3,0.8h9.5l-0.3,1.5h-7.8c-0.8,0-1.5,0.7-1.5,1.5s0.7,1.5,1.5,1.5h9
			c0.7,0,1.3-0.5,1.5-1.2l2.8-15.3h1.7c0.8,0,1.5-0.7,1.5-1.5C-260.9,409.6-261.6,408.9-262.4,408.9z M-275.9,429.9
			c-0.8,0-1.5,0.7-1.5,1.5s0.7,1.5,1.5,1.5s1.5-0.7,1.5-1.5S-275.1,429.9-275.9,429.9z M-269.9,429.9c-0.8,0-1.5,0.7-1.5,1.5
			s0.7,1.5,1.5,1.5s1.5-0.7,1.5-1.5S-269.1,429.9-269.9,429.9z"/>
	</g>
</g>
</svg>
