<?xml version="1.0" encoding="utf-8"?>
<!-- Generator: Adobe Illustrator 19.0.0, SVG Export Plug-In . SVG Version: 6.00 Build 0)  -->
<svg version="1.1" id="Layer_1" xmlns="http://www.w3.org/2000/svg" xmlns:xlink="http://www.w3.org/1999/xlink" x="0px" y="0px"
	 viewBox="0 0 27 27" style="enable-background:new 0 0 27 27;" xml:space="preserve">
<style type="text/css">
	.st0{fill-rule:evenodd;clip-rule:evenodd;fill:#ED1A50;}
</style>
<path id="XMLID_2_" class="st0" d="M13.5,0C6,0,0,6,0,13.5C0,21,6,27,13.5,27C21,27,27,21,27,13.5C27,6,21,0,13.5,0z M14,4.8
	c0.2,0.5,0.1,1.4-1.2,1.8l-1.7-3.3C11.1,3.4,13.4,2.7,14,4.8z M10.2,24.7c-0.9,0.1-2.1,0.3-2.4-3.2c-0.5-0.8-1.3-1-2.1-1.1
	c-0.8-0.2-1-1.9,0-3.3c-0.8-0.9-4.4-4-3.7-7.1c0.8-2.4,2-5.6,6.2-7.5C10,4,11.2,4.9,8.9,6.1c-0.9,0.5-1.1,1.8,0,2
	c0,0,0.2-1.1,0.9-0.8c0.7,0.3,2.3,1.9,1.1,2c-1.2,0.1-1.7,0.6-2.3,1.3C8,11.2,7,13,6.4,13C5.7,13.1,5.8,12,5.1,12
	c-0.6,0-1.2,0-0.9,1.9c0.4,1.1,3.7,3.5,11,5.8C15.3,20,14.4,24.3,10.2,24.7z M23.3,16.2c0,0-0.2,0.2-0.6,0.4
	c-0.5,0.2-4.5,1.4-4.3-2.1c0.3-0.8,2.4-5.2-1.7-7c0.5-0.8,1.9-1.1,1.9-1.1L16,2.3c0,0,8.1,1,9,9.4c0,1.3-0.1,4.7-0.8,6.6
	C23.5,16.8,23.3,16.2,23.3,16.2z"/>
</svg>
