<?xml version="1.0" encoding="utf-8"?>
<!-- Generator: Adobe Illustrator 19.0.0, SVG Export Plug-In . SVG Version: 6.00 Build 0)  -->
<svg version="1.1" id="Layer_1" xmlns="http://www.w3.org/2000/svg" xmlns:xlink="http://www.w3.org/1999/xlink" x="0px" y="0px"
	 viewBox="-289 408.6 15.2 24.3" style="enable-background:new -289 408.6 15.2 24.3;" xml:space="preserve">
<style type="text/css">
	.st0{fill:#4B494E;}
</style>
<g>
	<g>
		<path class="st0" d="M-281.4,425.3c2.5,0,4.6-2,4.6-4.6v-7.6c0-2.5-2-4.5-4.6-4.5c-2.5,0-4.6,2-4.6,4.5v7.6
			C-286,423.3-283.9,425.3-281.4,425.3z M-274.6,417.7c-0.4,0-0.8,0.3-0.8,0.8v2.3c0,3.4-2.7,6.1-6.1,6.1c-3.4,0-6.1-2.7-6.1-6.1
			v-2.3c0-0.4-0.3-0.8-0.8-0.8c-0.4,0-0.8,0.3-0.8,0.8v2.3c0,3.7,2.6,6.8,6.1,7.4v1.9c-1.4,0.4-2.5,1.4-3.1,2.8h3
			c0-0.8,0.7-1.5,1.5-1.5c0.8,0,1.5,0.7,1.5,1.5h3c-0.6-1.3-1.7-2.3-3-2.8v-1.9c3.4-0.7,6-3.8,6-7.4v-2.3
			C-273.8,418.1-274.2,417.7-274.6,417.7z"/>
	</g>
</g>
</svg>
