<?xml version="1.0" encoding="utf-8"?>
<!-- Generator: Adobe Illustrator 16.0.0, SVG Export Plug-In . SVG Version: 6.00 Build 0)  -->
<!DOCTYPE svg PUBLIC "-//W3C//DTD SVG 1.1//EN" "http://www.w3.org/Graphics/SVG/1.1/DTD/svg11.dtd">
<svg version="1.1" id="Layer_1" xmlns="http://www.w3.org/2000/svg" xmlns:xlink="http://www.w3.org/1999/xlink" x="0px" y="0px"
	 width="11.997px" height="11.996px" viewBox="0 0 11.997 11.996" enable-background="new 0 0 11.997 11.996" xml:space="preserve">
<path fill-rule="evenodd" clip-rule="evenodd" d="M11.704,11.703c-0.391,0.391-1.023,0.391-1.414,0L7.755,9.168
	C6.964,9.691,6.019,10,5,10c-2.761,0-5-2.238-5-5c0-2.761,2.239-5,5-5c2.762,0,5.001,2.239,5.001,5c0,1.019-0.309,1.964-0.832,2.754
	l2.535,2.535C12.095,10.68,12.095,11.313,11.704,11.703z M5,2C3.344,2,2.001,3.343,2.001,5S3.344,8,5,8c1.657,0,3.001-1.343,3.001-3
	S6.657,2,5,2z"/>
</svg>
