<?xml version="1.0" encoding="utf-8"?>
<!-- Generator: Adobe Illustrator 16.0.0, SVG Export Plug-In . SVG Version: 6.00 Build 0)  -->
<!DOCTYPE svg PUBLIC "-//W3C//DTD SVG 1.1//EN" "http://www.w3.org/Graphics/SVG/1.1/DTD/svg11.dtd">
<svg version="1.1" id="Layer_1" xmlns="http://www.w3.org/2000/svg" xmlns:xlink="http://www.w3.org/1999/xlink" x="0px" y="0px"
	 width="20.219px" height="20.219px" viewBox="0 0 20.219 20.219" enable-background="new 0 0 20.219 20.219" xml:space="preserve">
<g>
	<g>
		<path fill="#E92E2F" d="M10.11,0C4.527,0,0,4.528,0,10.112c0,5.581,4.527,10.107,10.11,10.107c5.583,0,10.108-4.526,10.108-10.107
			C20.219,4.528,15.693,0,10.11,0z M10.11,17.148c-3.882,0-7.041-3.157-7.041-7.037c0-3.885,3.159-7.044,7.041-7.044
			s7.038,3.159,7.038,7.044C17.148,13.991,13.992,17.148,10.11,17.148z M10.979,9.553L10.98,5.65c0-0.48-0.389-0.867-0.87-0.867
			c-0.482,0-0.872,0.387-0.872,0.867v5.644h1.74v-0.001l3.904,0.001c0.479,0,0.869-0.388,0.869-0.87
			c0-0.483-0.391-0.871-0.869-0.871H10.979z"/>
	</g>
</g>
</svg>
