<svg viewBox="0 0 100 100" xmlns="http://www.w3.org/2000/svg"><symbol viewBox="0 0 24 32.005" id="icon-bag"><title>bag</title> <path fill-rule="evenodd" clip-rule="evenodd" d="M136.262,97.297c-0.391,0.391-1.023,0.391-1.414,0l-2.535-2.535
	c-0.791,0.523-1.736,0.832-2.755,0.832c-2.761,0-5-2.238-5-5c0-2.761,2.239-5,5-5c2.762,0,5.001,2.239,5.001,5
	c0,1.019-0.309,1.964-0.832,2.754l2.535,2.535C136.653,96.274,136.653,96.907,136.262,97.297z M129.558,87.594
	c-1.656,0-2.999,1.343-2.999,3s1.343,3,2.999,3c1.657,0,3.001-1.343,3.001-3S131.215,87.594,129.558,87.594z"/> <path d="M20,11.002C20,4.935,16.412,0,12,0C7.591,0,4,4.935,4,11.002H0v21.003h24V11.002H20z M5,15.002
	c-0.553,0-1-0.447-1-1c0-0.554,0.447-1,1-1c0.554,0,1,0.446,1,1C6,14.555,5.554,15.002,5,15.002z M12,2c3.31,0,6,4.038,6,9.002H6
	C6,6.038,8.691,2,12,2z M19,15.002c-0.553,0-1-0.447-1-1c0-0.554,0.447-1,1-1c0.554,0,1,0.446,1,1
	C20,14.555,19.554,15.002,19,15.002z"/> </symbol><symbol viewBox="0 0 32 32" id="icon-calendar"><title>calendar</title> <path d="M4,5V1c0-0.6,0.4-1,1-1c0.6,0,1,0.4,1,1v4c0,0.6-0.4,1-1,1C4.4,6,4,5.6,4,5z M21,6c0.6,0,1-0.4,1-1V1c0-0.6-0.4-1-1-1
	c-0.6,0-1,0.4-1,1v4C20,5.6,20.5,6,21,6z M32,24c0,4.4-3.6,8-8,8c-4.4,0-8-3.6-8-8c0-4.4,3.6-8,8-8C28.4,16,32,19.6,32,24z M30,24
	c0-3.3-2.7-6-6-6s-6,2.7-6,6c0,3.3,2.7,6,6,6S30,27.3,30,24z M8,12H4v4h4V12z M4,22h4v-4H4V22z M10,16h4v-4h-4V16z M10,22h4v-4h-4
	V22z M2,23.8V10h22v4h2V6.2C26,5,25,4,23.8,4H23v1c0,1.1-0.9,2-2,2c-1.1,0-2-0.9-2-2V4H7v1c0,1.1-0.9,2-2,2C3.9,7,3,6.1,3,5V4H2.2
	C1,4,0,5,0,6.2v17.6C0,25,1,26,2.2,26H14v-2H2.2C2.1,24,2,23.9,2,23.8z M20,16v-4h-4v4H20z M24,19h-1v6h6v-1C29,21.2,26.8,19,24,19z
	"/> </symbol><symbol viewBox="0 0 16.562 12.966" id="icon-callout"><title>callout</title> <path fill-rule="evenodd" clip-rule="evenodd" d="M8.768,0c4.843,0,7.794,2.094,7.794,5.293
	c0,3.198-2.951,5.689-7.794,5.689c-0.59,0-1.166-0.038-1.724-0.112c-2.254,2.613-5.938,2.043-5.938,2.043
	c2.511-1.09,2.57-2.702,2.124-2.942C1.259,8.909,0,7.292,0,5.48C0,2.281,3.926,0,8.768,0z"/> </symbol><symbol viewBox="-285 408.9 24 24" id="icon-cart"><title>cart</title> <style type="text/css"> .st0{fill:#4B494E;} </style> <g> <g> <path class="st0" d="M-262.4,408.9L-262.4,408.9h-3c-0.7,0-1.3,0.5-1.5,1.2l-0.3,1.8h-16.2c-0.5,0-1,0.3-1.3,0.7
			c-0.3,0.4-0.3,1-0.1,1.5l4.5,9c0.3,0.5,0.8,0.8,1.3,0.8h9.5l-0.3,1.5h-7.8c-0.8,0-1.5,0.7-1.5,1.5s0.7,1.5,1.5,1.5h9
			c0.7,0,1.3-0.5,1.5-1.2l2.8-15.3h1.7c0.8,0,1.5-0.7,1.5-1.5C-260.9,409.6-261.6,408.9-262.4,408.9z M-275.9,429.9
			c-0.8,0-1.5,0.7-1.5,1.5s0.7,1.5,1.5,1.5s1.5-0.7,1.5-1.5S-275.1,429.9-275.9,429.9z M-269.9,429.9c-0.8,0-1.5,0.7-1.5,1.5
			s0.7,1.5,1.5,1.5s1.5-0.7,1.5-1.5S-269.1,429.9-269.9,429.9z"/> </g> </g> </symbol><symbol viewBox="0 0 37.3 37.3" id="icon-circle"><title>circle</title> <style type="text/css"> .st0{fill-rule:evenodd;clip-rule:evenodd;} </style> <g> <g id="circle-XMLID_50_"> <path id="circle-XMLID_51_" class="st0" d="M18.6,14.6c-2.2,0-4,1.8-4,4c0,2.2,1.8,4,4,4c2.2,0,4-1.8,4-4C22.5,16.4,20.8,14.6,18.6,14.6z
			 M18.6,21.3c-1.5,0-2.7-1.2-2.7-2.7c0-1.5,1.2-2.7,2.7-2.7c1.5,0,2.7,1.2,2.7,2.7C21.3,20.1,20.1,21.3,18.6,21.3z M18.6,0
			C8.3,0,0,8.3,0,18.6c0,10.3,8.3,18.6,18.6,18.6c10.3,0,18.6-8.3,18.6-18.6C37.3,8.3,28.9,0,18.6,0z M18.6,27.9
			c-5.1,0-9.3-4.2-9.3-9.3c0-5.1,4.2-9.3,9.3-9.3s9.3,4.2,9.3,9.3C27.9,23.7,23.7,27.9,18.6,27.9z"/> </g> </g> </symbol><symbol viewBox="0 0 27 27" id="icon-earth"><title>earth</title> <style type="text/css"> .st0{fill-rule:evenodd;clip-rule:evenodd;fill:#ED1A50;} </style> <path id="earth-XMLID_2_" class="st0" d="M13.5,0C6,0,0,6,0,13.5C0,21,6,27,13.5,27C21,27,27,21,27,13.5C27,6,21,0,13.5,0z M14,4.8
	c0.2,0.5,0.1,1.4-1.2,1.8l-1.7-3.3C11.1,3.4,13.4,2.7,14,4.8z M10.2,24.7c-0.9,0.1-2.1,0.3-2.4-3.2c-0.5-0.8-1.3-1-2.1-1.1
	c-0.8-0.2-1-1.9,0-3.3c-0.8-0.9-4.4-4-3.7-7.1c0.8-2.4,2-5.6,6.2-7.5C10,4,11.2,4.9,8.9,6.1c-0.9,0.5-1.1,1.8,0,2
	c0,0,0.2-1.1,0.9-0.8c0.7,0.3,2.3,1.9,1.1,2c-1.2,0.1-1.7,0.6-2.3,1.3C8,11.2,7,13,6.4,13C5.7,13.1,5.8,12,5.1,12
	c-0.6,0-1.2,0-0.9,1.9c0.4,1.1,3.7,3.5,11,5.8C15.3,20,14.4,24.3,10.2,24.7z M23.3,16.2c0,0-0.2,0.2-0.6,0.4
	c-0.5,0.2-4.5,1.4-4.3-2.1c0.3-0.8,2.4-5.2-1.7-7c0.5-0.8,1.9-1.1,1.9-1.1L16,2.3c0,0,8.1,1,9,9.4c0,1.3-0.1,4.7-0.8,6.6
	C23.5,16.8,23.3,16.2,23.3,16.2z"/> </symbol><symbol viewBox="-289 408.6 15.2 24.3" id="icon-mic"><title>mic</title> <style type="text/css"> .st0{fill:#4B494E;} </style> <g> <g> <path class="st0" d="M-281.4,425.3c2.5,0,4.6-2,4.6-4.6v-7.6c0-2.5-2-4.5-4.6-4.5c-2.5,0-4.6,2-4.6,4.5v7.6
			C-286,423.3-283.9,425.3-281.4,425.3z M-274.6,417.7c-0.4,0-0.8,0.3-0.8,0.8v2.3c0,3.4-2.7,6.1-6.1,6.1c-3.4,0-6.1-2.7-6.1-6.1
			v-2.3c0-0.4-0.3-0.8-0.8-0.8c-0.4,0-0.8,0.3-0.8,0.8v2.3c0,3.7,2.6,6.8,6.1,7.4v1.9c-1.4,0.4-2.5,1.4-3.1,2.8h3
			c0-0.8,0.7-1.5,1.5-1.5c0.8,0,1.5,0.7,1.5,1.5h3c-0.6-1.3-1.7-2.3-3-2.8v-1.9c3.4-0.7,6-3.8,6-7.4v-2.3
			C-273.8,418.1-274.2,417.7-274.6,417.7z"/> </g> </g> </symbol><symbol viewBox="0 0 11.997 11.996" id="icon-search"><title>search</title> <path fill-rule="evenodd" clip-rule="evenodd" d="M11.704,11.703c-0.391,0.391-1.023,0.391-1.414,0L7.755,9.168
	C6.964,9.691,6.019,10,5,10c-2.761,0-5-2.238-5-5c0-2.761,2.239-5,5-5c2.762,0,5.001,2.239,5.001,5c0,1.019-0.309,1.964-0.832,2.754
	l2.535,2.535C12.095,10.68,12.095,11.313,11.704,11.703z M5,2C3.344,2,2.001,3.343,2.001,5S3.344,8,5,8c1.657,0,3.001-1.343,3.001-3
	S6.657,2,5,2z"/> </symbol><symbol viewBox="0 0 20.219 20.219" id="icon-time"><title>time</title> <g> <g> <path d="M10.11,0C4.527,0,0,4.528,0,10.112c0,5.581,4.527,10.107,10.11,10.107c5.583,0,10.108-4.526,10.108-10.107
			C20.219,4.528,15.693,0,10.11,0z M10.11,17.148c-3.882,0-7.041-3.157-7.041-7.037c0-3.885,3.159-7.044,7.041-7.044
			s7.038,3.159,7.038,7.044C17.148,13.991,13.992,17.148,10.11,17.148z M10.979,9.553L10.98,5.65c0-0.48-0.389-0.867-0.87-0.867
			c-0.482,0-0.872,0.387-0.872,0.867v5.644h1.74v-0.001l3.904,0.001c0.479,0,0.869-0.388,0.869-0.87
			c0-0.483-0.391-0.871-0.869-0.871H10.979z"/> </g> </g> </symbol></svg>